<?xml version="1.0" encoding="iso-8859-1"?>
<!-- Uploaded to: SVG Repo, www.svgrepo.com, Generator: SVG Repo Mixer Tools -->
<svg fill="#000000" height="800px" width="800px" version="1.1" id="Layer_1" xmlns="http://www.w3.org/2000/svg" xmlns:xlink="http://www.w3.org/1999/xlink" 
	 viewBox="0 0 507.902 507.902" xml:space="preserve">
<g>
	<g>
		<path d="M499.3,217.301l-52.9-21.8c-3.8-12.5-8.8-24.6-15-36.1l22-52.9c2.2-5.3,1-11.4-3.1-15.4l-33.4-33.4
			c-4-4-10.1-5.2-15.4-3.1l-52.9,22c-11.6-6.2-23.7-11.2-36.1-15l-21.8-52.9c-2.2-5.3-7.3-8.7-13-8.7h-47.3c-5.7,0-10.9,3.4-13,8.7
			l-21.8,52.9c-12.5,3.8-24.6,8.8-36.1,15l-52.9-22c-5.3-2.2-11.4-1-15.4,3.1l-33.5,33.4c-4,4-5.2,10.1-3.1,15.4l22,52.9
			c-6.2,11.6-11.2,23.7-15,36.1l-52.9,21.8c-5.3,2.2-8.7,7.3-8.7,13v47.3c0,5.7,3.4,10.9,8.7,13l52.9,21.8
			c3.8,12.5,8.8,24.6,15,36.1l-22,52.9c-2.2,5.3-1,11.4,3.1,15.4l33.4,33.4c4,4,10.1,5.3,15.4,3.1l52.9-22
			c11.6,6.2,23.7,11.2,36.1,15l21.8,52.9c2.2,5.3,7.3,8.7,13,8.7h47.3c5.7,0,10.9-3.4,13-8.7l21.8-52.9c12.5-3.8,24.6-8.8,36.1-15
			l52.9,22c5.3,2.2,11.4,1,15.4-3.1l33.4-33.4c4-4,5.2-10.1,3.1-15.4l-22-52.9c6.2-11.6,11.2-23.7,15-36.1l52.9-21.8
			c5.3-2.2,8.7-7.3,8.7-13v-47.3C508,224.701,504.6,219.501,499.3,217.301z M479.8,268.201l-50.5,20.8c-4.1,1.7-7.1,5.2-8.3,9.4
			c-3.9,14.7-9.8,28.9-17.5,42.2c-2.2,3.8-2.5,8.4-0.8,12.5l21,50.5l-20.1,20.1l-50.5-21c-4.1-1.7-8.7-1.4-12.5,0.8
			c-13.3,7.7-27.5,13.6-42.2,17.5c-4.3,1.1-7.7,4.2-9.4,8.3l-20.8,50.5h-28.4l-20.8-50.5c-1.7-4.1-5.2-7.1-9.4-8.3
			c-14.7-3.9-28.9-9.8-42.2-17.5c-3.8-2.2-8.4-2.5-12.5-0.8l-50.4,21l-20.1-20.1l21-50.5c1.7-4.1,1.4-8.7-0.8-12.5
			c-7.7-13.3-13.6-27.5-17.5-42.2c-1.1-4.3-4.2-7.7-8.3-9.4l-50.4-20.8v-28.4l50.3-20.8c4.1-1.7,7.1-5.2,8.3-9.4
			c3.9-14.7,9.8-28.9,17.5-42.2c2.2-3.8,2.5-8.4,0.8-12.5l-21-50.5l20.1-20.1l50.4,21c4.1,1.7,8.7,1.4,12.5-0.8
			c13.3-7.7,27.5-13.6,42.2-17.5c4.3-1.1,7.7-4.2,9.4-8.3l20.8-50.5h28.4l20.9,50.5c1.7,4.1,5.2,7.1,9.4,8.3
			c14.7,3.9,28.9,9.8,42.2,17.5c3.8,2.2,8.4,2.5,12.5,0.8l50.5-21l20.1,20.1l-21,50.5c-1.7,4.1-1.4,8.7,0.8,12.5
			c7.7,13.3,13.6,27.5,17.5,42.2c1.1,4.3,4.2,7.7,8.3,9.4l50.5,20.8V268.201z"/>
	</g>
</g>
<g>
	<g>
		<path d="M254,121.701c-30.9,0-56.1,25.2-56.1,56.1s25.2,56.1,56.1,56.1c30.9,0,56.1-25.2,56.1-56.1S284.9,121.701,254,121.701z
			 M254,205.601c-15.4,0-27.9-12.5-27.9-27.9c0-15.4,12.5-27.9,27.9-27.9c15.4,0,27.9,12.5,27.9,27.9
			C281.9,193.101,269.4,205.601,254,205.601z"/>
	</g>
</g>
<g>
	<g>
		<path d="M357.2,350.901c-1.1-55.8-47-101-103.2-101c-56.9,0-103.2,46.3-103.2,103.2c0,7.8,6.3,14.1,14.1,14.1h178.3h0.1
			C359.1,367.201,357.4,351.601,357.2,350.901z M180.3,339.001c6.6-34.6,37.1-60.9,73.7-60.9c36.5,0,67.1,26.3,73.7,60.9H180.3z"/>
	</g>
</g>
</svg>